<?xml version="1.0" encoding="utf-8"?>
<!-- Generator: Adobe Illustrator 25.2.0, SVG Export Plug-In . SVG Version: 6.00 Build 0)  -->
<svg version="1.1" id="Layer_1" xmlns="http://www.w3.org/2000/svg" xmlns:xlink="http://www.w3.org/1999/xlink" x="0px" y="0px"
	 viewBox="0 0 56.69 56.69" style="enable-background:new 0 0 56.69 56.69;" xml:space="preserve">
<style type="text/css">
	.st0{fill:#505C91;}
	.st1{fill:#F9F9F9;}
	.st2{fill:#CACED8;}
	.st3{fill:#505D70;}
	.st4{fill:#F14A16;}
	.st5{fill:#B3B3B3;}
	.st6{fill:#FFFFFF;}
	.st7{fill:#FEFEFE;}
	.st8{fill:#FDD32D;}
	.st9{clip-path:url(#SVGID_2_);}
	.st10{clip-path:url(#SVGID_6_);}
	.st11{clip-path:url(#SVGID_8_);}
	.st12{fill:#19D819;}
	.st13{fill:#989898;}
	.st14{fill:#4C9FFF;}
	.st15{stroke:#FFFFFF;stroke-miterlimit:10;}
	.st16{fill:#FE591F;}
	.st17{fill:#FD780F;}
	.st18{fill:#888888;}
	.st19{fill:#606060;}
	.st20{fill:#55A35B;}
	.st21{fill:#F7F8FA;}
	.st22{fill:#F4F4F4;}
	.st23{fill:#808080;}
	.st24{fill:#041562;}
	.st25{fill:#B7BBBF;}
	.st26{fill:#00C9A7;}
	.st27{fill:none;stroke:#E7EAF3;stroke-miterlimit:10;}
	.st28{fill:#D1CFCF;stroke:#0000FF;stroke-miterlimit:10;}
	.st29{fill:none;stroke:#231815;}
	.st30{fill:none;stroke:#E8EDEF;stroke-miterlimit:10;}
	.st31{fill:none;stroke:#BDCCD4;stroke-width:0.5;stroke-miterlimit:10;}
	.st32{clip-path:url(#SVGID_14_);}
	.st33{clip-path:url(#SVGID_18_);fill:none;stroke:#558ED5;stroke-width:0.75;stroke-miterlimit:8;}
	.st34{fill:#4D4D4D;}
	.st35{clip-path:url(#SVGID_20_);}
</style>
<path class="st19" d="M28.76,55.28c-14.85,0-26.93-12.08-26.93-26.93S13.92,1.42,28.76,1.42S55.69,13.5,55.69,28.35
	S43.61,55.28,28.76,55.28z M28.76,2.31c-14.36,0-26.04,11.68-26.04,26.04s11.68,26.04,26.04,26.04S54.8,42.7,54.8,28.35
	S43.12,2.31,28.76,2.31z"/>
<g>
	<g>
		<g>
			<circle class="st19" cx="23.01" cy="28.44" r="1.41"/>
			<circle class="st19" cx="28.37" cy="28.44" r="1.41"/>
			<circle class="st19" cx="33.73" cy="28.44" r="1.41"/>
		</g>
		<path class="st19" d="M22.45,41.25c-0.05,0-0.1,0-0.16-0.01c-0.85-0.09-1.44-0.75-1.45-1.61c-0.01-0.65,0-1.3,0-1.95l0-0.6
			c-0.56-0.17-1.04-0.4-1.47-0.7c-1.61-1.12-2.44-2.66-2.46-4.58c-0.03-2.45-0.03-5.04,0-7.92c0.02-2.79,1.98-5.03,4.76-5.47
			c0.26-0.04,0.54-0.06,0.88-0.06c3.87,0,7.74-0.01,11.62,0c2.73,0,4.95,1.78,5.51,4.43c0.08,0.37,0.12,0.77,0.12,1.2l0,0
			c0.01,2.57,0.01,5.13,0,7.7c-0.01,2.78-1.83,5-4.53,5.53c-0.41,0.08-0.81,0.09-1.15,0.09c-1.75,0.01-3.5,0-5.26,0.01
			c-0.01,0-0.03,0.01-0.04,0.01c-1.79,1.19-3.58,2.38-5.36,3.57C23.23,41.06,22.89,41.25,22.45,41.25z M29.36,19.61
			c-2.27,0-4.55,0-6.82,0c-0.28,0-0.49,0.01-0.69,0.04c-2.16,0.34-3.68,2.08-3.7,4.24c-0.02,2.87-0.02,5.45,0,7.89
			c0.02,1.49,0.66,2.69,1.92,3.56c0.42,0.29,0.92,0.5,1.53,0.64l0.49,0.11l0,1.58c0,0.65,0,1.29,0,1.94c0,0.16,0.06,0.35,0.33,0.38
			c0.06,0,0.14,0,0.34-0.13c1.79-1.2,3.58-2.39,5.37-3.58c0.21-0.14,0.47-0.22,0.72-0.22c1.75-0.01,3.5,0,5.25-0.01
			c0.28,0,0.61-0.01,0.91-0.07c2.1-0.41,3.52-2.14,3.52-4.3c0.01-2.56,0.01-5.13,0-7.69l0,0c0-0.34-0.03-0.66-0.09-0.95
			c-0.44-2.05-2.16-3.43-4.29-3.44C32.56,19.61,30.96,19.61,29.36,19.61z"/>
	</g>
</g>
</svg>
