<?xml version="1.0" encoding="utf-8"?>
<!-- Generator: Adobe Illustrator 25.2.0, SVG Export Plug-In . SVG Version: 6.00 Build 0)  -->
<svg version="1.1" id="Layer_1" xmlns="http://www.w3.org/2000/svg" xmlns:xlink="http://www.w3.org/1999/xlink" x="0px" y="0px"
	 viewBox="0 0 56.69 56.69" style="enable-background:new 0 0 56.69 56.69;" xml:space="preserve">
<style type="text/css">
	.st0{fill:#505C91;}
	.st1{fill:#F9F9F9;}
	.st2{fill:#CACED8;}
	.st3{fill:#505D70;}
	.st4{fill:#F14A16;}
	.st5{fill:#B3B3B3;}
	.st6{fill:#FFFFFF;}
	.st7{fill:#FEFEFE;}
	.st8{fill:#FDD32D;}
	.st9{clip-path:url(#SVGID_2_);}
	.st10{clip-path:url(#SVGID_6_);}
	.st11{clip-path:url(#SVGID_8_);}
	.st12{fill:#19D819;}
	.st13{fill:#989898;}
	.st14{fill:#4C9FFF;}
	.st15{stroke:#FFFFFF;stroke-miterlimit:10;}
	.st16{fill:#FE591F;}
	.st17{fill:#FD780F;}
	.st18{fill:#888888;}
	.st19{fill:#606060;}
	.st20{fill:#55A35B;}
	.st21{fill:#F7F8FA;}
	.st22{fill:#F4F4F4;}
	.st23{fill:#808080;}
	.st24{fill:#041562;}
	.st25{fill:#B7BBBF;}
	.st26{fill:#00C9A7;}
	.st27{fill:none;stroke:#E7EAF3;stroke-miterlimit:10;}
	.st28{fill:#D1CFCF;stroke:#0000FF;stroke-miterlimit:10;}
	.st29{fill:none;stroke:#231815;}
	.st30{fill:none;stroke:#E8EDEF;stroke-miterlimit:10;}
	.st31{fill:none;stroke:#BDCCD4;stroke-width:0.5;stroke-miterlimit:10;}
	.st32{clip-path:url(#SVGID_14_);}
	.st33{clip-path:url(#SVGID_18_);fill:none;stroke:#558ED5;stroke-width:0.75;stroke-miterlimit:8;}
	.st34{fill:#4D4D4D;}
	.st35{clip-path:url(#SVGID_20_);}
</style>
<g>
	<path d="M20.45,49.42c-3.51,0-7.05,0-10.59,0c-1.94,0-3.17-0.72-3.72-2.15c-0.56-1.45-0.12-2.79,1.3-4.1
		c3.31-3.05,5.08-6.81,5.17-11.32c0.06-2.87-0.13-5.77,0.16-8.61c0.66-6.39,4.15-10.78,10.09-13.18c0.77-0.31,1.13-0.65,1.03-1.5
		c-0.08-0.66-0.03-1.33,0-2c0.12-2.41,2.07-4.27,4.46-4.27c2.39,0,4.33,1.86,4.45,4.28c0.04,0.77,0.05,1.54,0.01,2.31
		c-0.03,0.6,0.21,0.83,0.76,1.04c6.61,2.51,10.48,8.13,10.51,15.21c0.01,2.14-0.01,4.28,0.01,6.41c0.03,4.68,1.81,8.58,5.27,11.7
		c0.94,0.85,1.54,1.82,1.41,3.12c-0.18,1.79-1.56,3.03-3.42,3.05c-3.33,0.02-6.66,0.01-9.99,0.01c-0.38,0-0.77,0-1.12,0
		c-1.68,4.65-4.1,6.72-7.84,6.73C24.62,56.16,22.27,54.19,20.45,49.42z M28.37,47.15c6.2,0,12.41,0.02,18.61-0.03
		c0.5,0,1.15-0.34,1.43-0.73c0.17-0.23-0.12-1.04-0.44-1.32c-4.4-3.97-6.31-8.94-6.17-14.81c0.06-2.55,0.12-5.14-0.21-7.66
		c-0.83-6.48-6.62-11.32-13.25-11.31c-6.63,0.01-12.4,4.84-13.22,11.35c-0.35,2.8-0.12,5.67-0.25,8.5
		c-0.07,1.57-0.19,3.16-0.53,4.68c-0.82,3.62-2.74,6.63-5.47,9.14c-0.36,0.33-0.65,1.06-0.54,1.49c0.08,0.33,0.85,0.51,1.33,0.69
		c0.21,0.08,0.49,0.01,0.73,0.01C16.39,47.15,22.38,47.15,28.37,47.15z M22.97,49.45c0.38,2.55,2.73,4.44,5.44,4.42
		c2.67-0.02,4.97-1.92,5.33-4.42C30.14,49.45,26.56,49.45,22.97,49.45z M30.54,9.07c0-0.92,0.09-1.82-0.02-2.7
		c-0.15-1.14-1.09-1.83-2.22-1.8c-1.07,0.02-1.97,0.71-2.11,1.81c-0.11,0.88-0.02,1.79-0.02,2.7C27.64,9.07,29.06,9.07,30.54,9.07z"
		/>
</g>
</svg>
