<?xml version="1.0" encoding="utf-8"?>
<!-- Generator: Adobe Illustrator 25.2.0, SVG Export Plug-In . SVG Version: 6.00 Build 0)  -->
<svg version="1.1" id="Layer_1" xmlns="http://www.w3.org/2000/svg" xmlns:xlink="http://www.w3.org/1999/xlink" x="0px" y="0px"
	 viewBox="0 0 56.69 56.69" style="enable-background:new 0 0 56.69 56.69;" xml:space="preserve">
<style type="text/css">
	.st0{fill:#505C91;}
	.st1{fill:#F9F9F9;}
	.st2{fill:#CACED8;}
	.st3{fill:#505D70;}
	.st4{fill:#F14A16;}
	.st5{fill:#B3B3B3;}
	.st6{fill:#FFFFFF;}
	.st7{fill:#FEFEFE;}
	.st8{fill:#FDD32D;}
	.st9{clip-path:url(#SVGID_2_);}
	.st10{clip-path:url(#SVGID_6_);}
	.st11{clip-path:url(#SVGID_8_);}
	.st12{fill:#19D819;}
	.st13{fill:#989898;}
	.st14{fill:#4C9FFF;}
	.st15{stroke:#FFFFFF;stroke-miterlimit:10;}
	.st16{fill:#FE591F;}
	.st17{fill:#FD780F;}
	.st18{fill:#888888;}
	.st19{fill:#606060;}
	.st20{fill:#55A35B;}
	.st21{fill:#F7F8FA;}
	.st22{fill:#F4F4F4;}
	.st23{fill:#808080;}
	.st24{fill:#041562;}
	.st25{fill:#B7BBBF;}
	.st26{fill:#00C9A7;}
	.st27{fill:none;stroke:#E7EAF3;stroke-miterlimit:10;}
	.st28{fill:#D1CFCF;stroke:#0000FF;stroke-miterlimit:10;}
	.st29{fill:none;stroke:#231815;}
	.st30{fill:none;stroke:#E8EDEF;stroke-miterlimit:10;}
	.st31{fill:none;stroke:#BDCCD4;stroke-width:0.5;stroke-miterlimit:10;}
	.st32{clip-path:url(#SVGID_14_);}
	.st33{clip-path:url(#SVGID_18_);fill:none;stroke:#558ED5;stroke-width:0.75;stroke-miterlimit:8;}
	.st34{fill:#4D4D4D;}
	.st35{clip-path:url(#SVGID_20_);}
</style>
<path class="st18" d="M4.22,1.54c13.15,6.71,26.3,13.42,39.45,20.13c3.35,1.71,6.69,3.42,10.03,5.13c0.64,0.33,1.15,0.74,1.22,1.52
	c0.08,0.88-0.29,1.48-1.06,1.88c-2.13,1.08-4.25,2.18-6.38,3.26c-14.06,7.21-28.12,14.42-42.2,21.61c-0.44,0.23-1,0.32-1.51,0.32
	c-0.74,0-1.33-0.64-1.3-1.38c0.03-0.76,0.16-1.53,0.32-2.28c1.35-6.09,2.73-12.17,4.09-18.25c0.06-0.29,0.18-0.44,0.5-0.49
	c2.78-0.47,5.55-0.96,8.33-1.45c3.14-0.55,6.28-1.09,9.42-1.63c2.35-0.41,4.69-0.81,7.04-1.22c0.08-0.01,0.16-0.05,0.36-0.11
	c-0.19-0.09-0.28-0.16-0.37-0.18c-3.26-0.57-6.52-1.13-9.78-1.69c-3.12-0.54-6.24-1.08-9.37-1.63c-1.88-0.33-3.76-0.67-5.64-0.98
	c-0.33-0.05-0.43-0.22-0.49-0.5C5.45,17.1,3.99,10.6,2.54,4.11C2.4,3.47,2.3,2.78,2.78,2.25c0.29-0.32,0.74-0.48,1.12-0.71
	C4.01,1.54,4.12,1.54,4.22,1.54z"/>
</svg>
