<?xml version="1.0" encoding="utf-8"?>
<!-- Generator: Adobe Illustrator 25.2.0, SVG Export Plug-In . SVG Version: 6.00 Build 0)  -->
<svg version="1.1" id="Layer_1" xmlns="http://www.w3.org/2000/svg" xmlns:xlink="http://www.w3.org/1999/xlink" x="0px" y="0px"
	 viewBox="0 0 56.69 56.69" style="enable-background:new 0 0 56.69 56.69;" xml:space="preserve">
<style type="text/css">
	.st0{fill:#505C91;}
	.st1{fill:#F9F9F9;}
	.st2{fill:#CACED8;}
	.st3{fill:#505D70;}
	.st4{fill:#F14A16;}
	.st5{fill:#B3B3B3;}
	.st6{fill:#FFFFFF;}
	.st7{fill:#FEFEFE;}
	.st8{fill:#FDD32D;}
	.st9{clip-path:url(#SVGID_2_);}
	.st10{clip-path:url(#SVGID_6_);}
	.st11{clip-path:url(#SVGID_8_);}
	.st12{fill:#19D819;}
	.st13{fill:#989898;}
	.st14{fill:#4C9FFF;}
	.st15{stroke:#FFFFFF;stroke-miterlimit:10;}
	.st16{fill:#FE591F;}
	.st17{fill:#FD780F;}
	.st18{fill:#888888;}
	.st19{fill:#606060;}
	.st20{fill:#55A35B;}
	.st21{fill:#F7F8FA;}
	.st22{fill:#F4F4F4;}
	.st23{fill:#808080;}
	.st24{fill:#041562;}
	.st25{fill:#B7BBBF;}
	.st26{fill:#00C9A7;}
	.st27{fill:none;stroke:#E7EAF3;stroke-miterlimit:10;}
	.st28{fill:#D1CFCF;stroke:#0000FF;stroke-miterlimit:10;}
	.st29{fill:none;stroke:#231815;}
	.st30{fill:none;stroke:#E8EDEF;stroke-miterlimit:10;}
	.st31{fill:none;stroke:#BDCCD4;stroke-width:0.5;stroke-miterlimit:10;}
	.st32{clip-path:url(#SVGID_14_);}
	.st33{clip-path:url(#SVGID_18_);fill:none;stroke:#558ED5;stroke-width:0.75;stroke-miterlimit:8;}
	.st34{fill:#4D4D4D;}
	.st35{clip-path:url(#SVGID_20_);}
</style>
<g>
	<path class="st13" d="M27.72,54.25c-1.68-0.27-3.96-0.45-6.12-1.04c-1.61-0.44-3.1-0.46-4.69-0.16c-3.69,0.69-7.39,1.36-11.1,1.95
		c-0.53,0.09-1.35-0.1-1.65-0.48c-0.3-0.37-0.31-1.21-0.11-1.71c1.03-2.58,2.15-5.13,3.28-7.67c0.28-0.64,0.28-1.1-0.16-1.7
		C-4.18,27.81,4.15,6.17,23.07,2.14c15.3-3.26,30.18,7.9,31.37,23.54C55.48,39.45,46,51.6,32.45,53.81
		C31.08,54.03,29.69,54.07,27.72,54.25z M7.62,51.72c0.25,0,0.39,0.02,0.52,0c3.32-0.58,6.65-1.15,9.96-1.77
		c1.09-0.21,2.09-0.03,3.16,0.18c2.47,0.5,5,1.14,7.49,1.11c11.71-0.15,21.39-9.05,22.76-20.7C53.33,15.06,39.78,2.16,24.46,4.78
		C6.83,7.8-1.07,28.36,10.01,42.42c0.74,0.94,0.91,1.75,0.4,2.85C9.43,47.36,8.57,49.52,7.62,51.72z"/>
	<path class="st13" d="M28.33,29.81c2.82,0,5.64-0.01,8.46,0c1.16,0,1.79,0.51,1.79,1.42c0,0.91-0.62,1.45-1.78,1.45
		c-5.67,0.01-11.34,0.01-17.02,0c-1.17,0-1.78-0.53-1.79-1.45c0-0.92,0.6-1.42,1.78-1.43C22.62,29.8,25.47,29.81,28.33,29.81z"/>
	<path class="st13" d="M23.19,25.48c-1.22,0-2.43,0.02-3.65-0.01c-1-0.02-1.57-0.57-1.56-1.43c0.01-0.85,0.57-1.39,1.59-1.39
		c2.47-0.02,4.93-0.02,7.4,0c1,0.01,1.57,0.57,1.56,1.43c-0.01,0.85-0.58,1.38-1.59,1.39C25.69,25.5,24.44,25.48,23.19,25.48z"/>
</g>
</svg>
