<?xml version="1.0" encoding="utf-8"?>
<!-- Generator: Adobe Illustrator 25.2.0, SVG Export Plug-In . SVG Version: 6.00 Build 0)  -->
<svg version="1.1" id="Layer_1" xmlns="http://www.w3.org/2000/svg" xmlns:xlink="http://www.w3.org/1999/xlink" x="0px" y="0px"
	 viewBox="0 0 56.69 56.69" style="enable-background:new 0 0 56.69 56.69;" xml:space="preserve">
<style type="text/css">
	.st0{fill:#505C91;}
	.st1{fill:#F9F9F9;}
	.st2{fill:#CACED8;}
	.st3{fill:#505D70;}
	.st4{fill:#F14A16;}
	.st5{fill:#B3B3B3;}
	.st6{fill:#FFFFFF;}
	.st7{fill:#FEFEFE;}
	.st8{fill:#FDD32D;}
	.st9{clip-path:url(#SVGID_2_);}
	.st10{clip-path:url(#SVGID_6_);}
	.st11{clip-path:url(#SVGID_8_);}
	.st12{fill:#19D819;}
	.st13{fill:#989898;}
	.st14{fill:#4C9FFF;}
	.st15{stroke:#FFFFFF;stroke-miterlimit:10;}
	.st16{fill:#FE591F;}
	.st17{fill:#FD780F;}
	.st18{fill:#888888;}
	.st19{fill:#606060;}
	.st20{fill:#55A35B;}
	.st21{fill:#F7F8FA;}
	.st22{fill:#F4F4F4;}
	.st23{fill:#808080;}
	.st24{fill:#041562;}
	.st25{fill:#B7BBBF;}
	.st26{fill:#00C9A7;}
	.st27{fill:none;stroke:#E7EAF3;stroke-miterlimit:10;}
	.st28{fill:#D1CFCF;stroke:#0000FF;stroke-miterlimit:10;}
	.st29{fill:none;stroke:#231815;}
	.st30{fill:none;stroke:#E8EDEF;stroke-miterlimit:10;}
	.st31{fill:none;stroke:#BDCCD4;stroke-width:0.5;stroke-miterlimit:10;}
	.st32{clip-path:url(#SVGID_14_);}
	.st33{clip-path:url(#SVGID_18_);fill:none;stroke:#558ED5;stroke-width:0.75;stroke-miterlimit:8;}
	.st34{fill:#4D4D4D;}
	.st35{clip-path:url(#SVGID_20_);}
</style>
<g>
	<g>
		<path d="M26.86,44.38c-0.15-0.23-0.26-0.55-0.35-0.95l-2.31-11.6c-0.07-0.38-0.08-0.69-0.04-0.94c0.04-0.24,0.11-0.43,0.2-0.57
			c0.09-0.17,0.21-0.3,0.36-0.39l-0.03-0.47c-0.9,0-1.65-0.1-2.25-0.3s-1.15-0.42-1.65-0.65c-0.5-0.23-1.03-0.45-1.57-0.64
			c-0.55-0.19-1.22-0.29-2.02-0.29c-1.21,0-2.24,0.23-3.09,0.68c-0.85,0.45-1.52,1.02-2.02,1.7c-0.49,0.69-0.82,1.43-0.98,2.22
			c-0.16,0.8-0.14,1.54,0.05,2.22c0.19,0.69,0.55,1.25,1.07,1.7c0.52,0.45,1.2,0.68,2.03,0.68c0.35,0,0.62-0.09,0.83-0.27
			c0.21-0.18,0.31-0.45,0.31-0.79c0-0.33-0.09-0.61-0.26-0.83c-0.17-0.22-0.36-0.46-0.56-0.69c-0.2-0.23-0.39-0.5-0.56-0.81
			c-0.17-0.3-0.26-0.72-0.26-1.24c0-0.62,0.1-1.17,0.31-1.63c0.21-0.46,0.47-0.84,0.79-1.14c0.32-0.3,0.68-0.52,1.07-0.66
			c0.39-0.14,0.77-0.21,1.13-0.21c0.57,0,1.09,0.18,1.56,0.55l-4,14.33c-0.14,0.45-0.3,0.8-0.47,1.04
			c-0.17,0.24-0.34,0.43-0.49,0.57c-0.17,0.14-0.35,0.23-0.52,0.26v0.52h3.88l0.03-0.52c-0.14-0.05-0.24-0.16-0.31-0.31
			c-0.05-0.14-0.09-0.33-0.1-0.59c-0.02-0.25,0.04-0.58,0.16-0.97l1.04-3.64h4.01l0.73,3.67c0.09,0.4,0.1,0.71,0.04,0.95
			c-0.06,0.23-0.14,0.42-0.25,0.56c-0.1,0.16-0.24,0.27-0.42,0.34v0.52h5.93v-0.52c-0.19-0.07-0.37-0.18-0.55-0.34
			C27.16,44.8,27.01,44.62,26.86,44.38z M18.16,38.54l2-7.02l1.43,7.02H18.16z"/>
		<path d="M43.51,27.7c-0.1,0.07-0.24,0.15-0.4,0.23c-0.16,0.09-0.37,0.17-0.62,0.23c-0.25,0.07-0.58,0.1-0.97,0.1
			c-0.57,0-1.08-0.03-1.51-0.1c-0.43-0.07-0.87-0.15-1.3-0.23c-0.43-0.09-0.89-0.16-1.37-0.23c-0.48-0.07-1.03-0.1-1.65-0.1
			c-1.54,0-2.84,0.26-3.9,0.77c-1.06,0.51-1.9,1.15-2.52,1.91c-0.62,0.76-1.04,1.59-1.24,2.47c-0.2,0.88-0.21,1.71-0.04,2.47
			c0.17,0.76,0.52,1.4,1.05,1.91c0.53,0.51,1.21,0.77,2.04,0.77c0.35,0,0.62-0.09,0.82-0.27c0.2-0.18,0.3-0.45,0.3-0.79
			c0-0.33-0.08-0.61-0.25-0.83c-0.16-0.22-0.35-0.46-0.56-0.69c-0.21-0.23-0.39-0.5-0.56-0.81c-0.16-0.3-0.25-0.72-0.25-1.24
			c0-0.35,0.06-0.79,0.17-1.33c0.11-0.54,0.35-1.06,0.7-1.56c0.36-0.5,0.87-0.94,1.53-1.3c0.67-0.36,1.56-0.55,2.69-0.55
			c0.78,0,1.45,0.13,2,0.39c0.56,0.26,1.07,0.55,1.56,0.87c0.48,0.32,0.98,0.61,1.48,0.87c0.5,0.26,1.09,0.39,1.77,0.39
			c0.68,0,1.2-0.18,1.59-0.55c0.38-0.36,0.62-0.76,0.72-1.18c0.09-0.42,0.06-0.82-0.12-1.18c-0.17-0.36-0.47-0.55-0.89-0.55
			C43.71,27.59,43.62,27.63,43.51,27.7z"/>
		<path d="M41.24,35.42c-0.06-0.28-0.12-0.54-0.17-0.78c-0.07-0.43-0.12-0.79-0.16-1.07c-0.02-0.16-0.03-0.29-0.03-0.42h-0.42
			c0,0.29-0.11,0.58-0.34,0.85c-0.23,0.27-0.56,0.4-1.01,0.4h-1.4v-2.57c0-0.38,0.04-0.69,0.13-0.94c0.09-0.24,0.19-0.43,0.31-0.57
			c0.12-0.17,0.26-0.3,0.42-0.39l-0.26-0.47c-0.88,0.45-1.83,0.72-2.85,0.81c-1.01,0.09-2.01,0.13-2.98,0.13v0.42
			c0.3,0,0.58,0.11,0.85,0.34c0.27,0.23,0.4,0.56,0.4,1.01v11.26c0,0.4-0.05,0.71-0.14,0.95c-0.1,0.23-0.21,0.42-0.35,0.56
			c-0.14,0.16-0.3,0.27-0.49,0.34v0.52h5.96v-0.52c-0.19-0.07-0.36-0.18-0.49-0.34c-0.14-0.14-0.26-0.33-0.35-0.56
			c-0.1-0.23-0.15-0.55-0.17-0.95v-7.31h1.77c0.35,0,0.63,0.07,0.85,0.2c0.22,0.13,0.39,0.27,0.53,0.43
			c0.16,0.19,0.28,0.4,0.36,0.62l0.47-0.29c-0.09-0.29-0.16-0.59-0.23-0.88C41.36,35.96,41.3,35.7,41.24,35.42z"/>
	</g>
	<path d="M51.48,53.86c-0.38-3.7-0.77-7.4-1.16-11.11l-0.52-4.87l-0.58-5.48c-0.58-5.51-1.17-11.02-1.74-16.54
		c-0.21-2.04-0.39-2.21-2.35-2.21l-4.66,0l-2.59,0l0.03-0.36c0.27-3.32-0.42-5.84-2.17-7.91c-1.91-2.26-4.35-3.45-7.27-3.53
		c-2.41-0.07-4.58,0.7-6.45,2.27c-2.59,2.18-3.73,5.18-3.48,9.17l0.02,0.35l-3.47,0c-0.58,0-1.16,0-1.74,0c-0.86,0-1.72,0-2.58,0.01
		c-1.18,0.01-1.54,0.34-1.66,1.53c-0.51,4.84-1.02,9.68-1.53,14.52l-0.52,4.97C6.4,41.11,5.72,47.52,5.06,53.93
		c-0.07,0.66,0.02,1.1,0.26,1.37c0.25,0.28,0.71,0.41,1.42,0.41c11.64,0,23.27,0,34.91,0c2.7,0,5.41,0,8.11,0
		c0.72,0,1.2-0.14,1.46-0.43C51.46,55.01,51.55,54.54,51.48,53.86z M24.18,5.74c2.39-1.68,5.49-1.76,7.88-0.19
		c2.6,1.7,3.66,4.24,3.24,7.76l-0.04,0.29H21.34l-0.06-0.26C20.65,10.39,21.79,7.41,24.18,5.74z M40.46,53.1H7.73l3.86-36.77h6.95
		l0,1.34c0,0.74-0.01,1.47,0.01,2.2c0.01,0.55,0.16,0.99,0.44,1.26c0.23,0.22,0.52,0.33,0.89,0.31c1-0.03,1.22-0.86,1.23-1.56
		c0.01-0.73,0.01-1.46,0.01-2.2l0-1.35h14.25v0.33c0,0.34,0,0.69,0,1.03c-0.01,0.79-0.01,1.61,0.01,2.41
		c0.02,0.76,0.39,1.2,1.1,1.32c0.83,0.14,1.22-0.38,1.39-0.84c0.08-0.22,0.08-0.51,0.08-0.79l0-0.15c0.01-0.68,0.01-1.35,0.01-2.06
		l0-1.21h6.98l2.34,22.24l1.52,14.5H40.46z"/>
</g>
</svg>
