<?xml version="1.0" encoding="utf-8"?>
<!-- Generator: Adobe Illustrator 25.2.0, SVG Export Plug-In . SVG Version: 6.00 Build 0)  -->
<svg version="1.1" id="Layer_1" xmlns="http://www.w3.org/2000/svg" xmlns:xlink="http://www.w3.org/1999/xlink" x="0px" y="0px"
	 viewBox="0 0 56.69 56.69" style="enable-background:new 0 0 56.69 56.69;" xml:space="preserve">
<style type="text/css">
	.st0{fill:#505C91;}
	.st1{fill:#F9F9F9;}
	.st2{fill:#CACED8;}
	.st3{fill:#505D70;}
	.st4{fill:#F14A16;}
	.st5{fill:#B3B3B3;}
	.st6{fill:#FFFFFF;}
	.st7{fill:#FEFEFE;}
	.st8{fill:#FDD32D;}
	.st9{clip-path:url(#SVGID_2_);}
	.st10{clip-path:url(#SVGID_6_);}
	.st11{clip-path:url(#SVGID_8_);}
	.st12{fill:#19D819;}
	.st13{fill:#989898;}
	.st14{fill:#4C9FFF;}
	.st15{stroke:#FFFFFF;stroke-miterlimit:10;}
	.st16{fill:#FE591F;}
	.st17{fill:#FD780F;}
	.st18{fill:#888888;}
	.st19{fill:#606060;}
	.st20{fill:#55A35B;}
	.st21{fill:#F7F8FA;}
	.st22{fill:#F4F4F4;}
	.st23{fill:#808080;}
	.st24{fill:#041562;}
	.st25{fill:#B7BBBF;}
	.st26{fill:#00C9A7;}
	.st27{fill:none;stroke:#E7EAF3;stroke-miterlimit:10;}
	.st28{fill:#D1CFCF;stroke:#0000FF;stroke-miterlimit:10;}
	.st29{fill:none;stroke:#231815;}
	.st30{fill:none;stroke:#E8EDEF;stroke-miterlimit:10;}
	.st31{fill:none;stroke:#BDCCD4;stroke-width:0.5;stroke-miterlimit:10;}
	.st32{clip-path:url(#SVGID_14_);}
	.st33{clip-path:url(#SVGID_18_);fill:none;stroke:#558ED5;stroke-width:0.75;stroke-miterlimit:8;}
	.st34{fill:#4D4D4D;}
	.st35{clip-path:url(#SVGID_20_);}
</style>
<path class="st13" d="M28.32,13.7c0.51-0.59,0.95-1.12,1.41-1.63c7.25-8.02,19.79-5.5,23.96,4.12c2.97,6.85,1.62,13.2-2.75,19.04
	c-2.96,3.96-6.66,7.18-10.36,10.4c-3.3,2.88-6.63,5.72-9.96,8.56c-1.51,1.29-3.02,1.36-4.45,0.12c-5.46-4.77-10.94-9.51-16.3-14.39
	c-2.91-2.65-5.33-5.75-6.96-9.39C0.13,24.36,1.31,16.6,5.76,11.9c6.15-6.51,16.15-6.06,21.85,0.97
	C27.83,13.13,28.05,13.39,28.32,13.7z M28.12,52.09c0.37-0.26,0.49-0.33,0.6-0.42c4.55-3.95,9.16-7.83,13.62-11.88
	c2.17-1.97,4.2-4.14,6.02-6.43c3.8-4.8,4.95-10.16,2.43-15.93c-3.2-7.36-12.54-9.33-18.06-3.86c-1.01,1-1.83,2.2-2.69,3.34
	c-0.99,1.3-2.46,1.32-3.42,0c-0.47-0.65-0.91-1.33-1.4-1.96C19.3,7.46,8.88,9.95,5.72,17.7C3.68,22.73,4.3,27.53,7.3,31.98
	c1.13,1.68,2.37,3.34,3.84,4.71C16.73,41.88,22.44,46.95,28.12,52.09z"/>
</svg>
