<?xml version="1.0" encoding="utf-8"?>
<!-- Generator: Adobe Illustrator 25.2.0, SVG Export Plug-In . SVG Version: 6.00 Build 0)  -->
<svg version="1.1" id="Layer_1" xmlns="http://www.w3.org/2000/svg" xmlns:xlink="http://www.w3.org/1999/xlink" x="0px" y="0px"
	 viewBox="0 0 56.69 56.69" style="enable-background:new 0 0 56.69 56.69;" xml:space="preserve">
<style type="text/css">
	.st0{fill:#505C91;}
	.st1{fill:#F9F9F9;}
	.st2{fill:#CACED8;}
	.st3{fill:#505D70;}
	.st4{fill:#F14A16;}
	.st5{fill:#B3B3B3;}
	.st6{fill:#FFFFFF;}
	.st7{fill:#FEFEFE;}
	.st8{fill:#FDD32D;}
	.st9{clip-path:url(#SVGID_2_);}
	.st10{clip-path:url(#SVGID_6_);}
	.st11{clip-path:url(#SVGID_8_);}
	.st12{fill:#19D819;}
	.st13{fill:#989898;}
	.st14{fill:#4C9FFF;}
	.st15{stroke:#FFFFFF;stroke-miterlimit:10;}
	.st16{fill:#FE591F;}
	.st17{fill:#FD780F;}
	.st18{fill:#888888;}
	.st19{fill:#606060;}
	.st20{fill:#55A35B;}
	.st21{fill:#F7F8FA;}
	.st22{fill:#F4F4F4;}
	.st23{fill:#808080;}
	.st24{fill:#041562;}
	.st25{fill:#B7BBBF;}
	.st26{fill:#00C9A7;}
	.st27{fill:none;stroke:#E7EAF3;stroke-miterlimit:10;}
	.st28{fill:#D1CFCF;stroke:#0000FF;stroke-miterlimit:10;}
	.st29{fill:none;stroke:#231815;}
	.st30{fill:none;stroke:#E8EDEF;stroke-miterlimit:10;}
	.st31{fill:none;stroke:#BDCCD4;stroke-width:0.5;stroke-miterlimit:10;}
	.st32{clip-path:url(#SVGID_14_);}
	.st33{clip-path:url(#SVGID_18_);fill:none;stroke:#558ED5;stroke-width:0.75;stroke-miterlimit:8;}
	.st34{fill:#4D4D4D;}
	.st35{clip-path:url(#SVGID_20_);}
</style>
<g>
	<path d="M55.25,28.33c0-1.01-0.49-1.73-1.46-2.15c-0.73-0.31-1.51-0.26-2.14,0.15c-0.7,0.46-1.12,1.3-1.12,2.24
		c-0.01,4.86-0.01,9.71-0.01,14.57l0,7.33H6.17l0-7.24c0-4.86,0-9.73,0-14.59c0-1.43-0.73-2.41-1.96-2.64
		c-0.68-0.13-1.34,0.04-1.86,0.47c-0.58,0.48-0.92,1.26-0.92,2.12c-0.01,6.75-0.01,13.51,0,20.26l0,1.56c0,3.16,1.69,4.84,4.88,4.84
		l17.27,0l6.91,0l5.76,0c4.84,0,9.69,0,14.53-0.01c2.56-0.01,4.44-1.71,4.45-4.06c0.05-6.81,0.03-13.73,0.02-20.43L55.25,28.33z"/>
	<path d="M17.54,16.85c0.72,0.03,1.42-0.32,2.04-0.92c0.97-0.96,1.94-1.92,2.9-2.89c0.65-0.65,1.29-1.3,1.94-1.94
		c0.14-0.14,0.3-0.26,0.5-0.41l1.05-0.84l0,31.04c0,0.21,0,0.43,0,0.64c0.06,1.4,1.05,2.41,2.37,2.41c0,0,0.01,0,0.01,0
		c1.33-0.01,2.34-1.05,2.35-2.42c0.02-3.47,0.02-6.93,0.01-10.4l0-21.59l2.6,2.6c1.32,1.32,2.56,2.57,3.81,3.8
		c1.13,1.11,2.56,1.21,3.55,0.25c0.46-0.44,0.7-0.99,0.71-1.59c0.01-0.7-0.33-1.42-0.93-2.04c-3.38-3.4-6.77-6.79-10.17-10.17
		c-1.32-1.31-2.55-1.3-3.88,0.02C23,5.79,19.61,9.18,16.23,12.59c-1.12,1.13-1.23,2.55-0.27,3.55C16.4,16.6,16.94,16.84,17.54,16.85
		z"/>
</g>
</svg>
