<?xml version="1.0" encoding="utf-8"?>
<!-- Generator: Adobe Illustrator 25.2.0, SVG Export Plug-In . SVG Version: 6.00 Build 0)  -->
<svg version="1.1" id="Layer_1" xmlns="http://www.w3.org/2000/svg" xmlns:xlink="http://www.w3.org/1999/xlink" x="0px" y="0px"
	 viewBox="0 0 56.69 56.69" style="enable-background:new 0 0 56.69 56.69;" xml:space="preserve">
<style type="text/css">
	.st0{fill:#505C91;}
	.st1{fill:#F9F9F9;}
	.st2{fill:#CACED8;}
	.st3{fill:#505D70;}
	.st4{fill:#F14A16;}
	.st5{fill:#B3B3B3;}
	.st6{fill:#FFFFFF;}
	.st7{fill:#FEFEFE;}
	.st8{fill:#FDD32D;}
	.st9{clip-path:url(#SVGID_2_);}
	.st10{clip-path:url(#SVGID_6_);}
	.st11{clip-path:url(#SVGID_8_);}
	.st12{fill:#19D819;}
	.st13{fill:#989898;}
	.st14{fill:#4C9FFF;}
	.st15{stroke:#FFFFFF;stroke-miterlimit:10;}
	.st16{fill:#FE591F;}
	.st17{fill:#FD780F;}
	.st18{fill:#888888;}
	.st19{fill:#606060;}
	.st20{fill:#55A35B;}
	.st21{fill:#F7F8FA;}
	.st22{fill:#F4F4F4;}
	.st23{fill:#808080;}
	.st24{fill:#041562;}
	.st25{fill:#B7BBBF;}
	.st26{fill:#00C9A7;}
	.st27{fill:none;stroke:#E7EAF3;stroke-miterlimit:10;}
	.st28{fill:#D1CFCF;stroke:#0000FF;stroke-miterlimit:10;}
	.st29{fill:none;stroke:#231815;}
	.st30{fill:none;stroke:#E8EDEF;stroke-miterlimit:10;}
	.st31{fill:none;stroke:#BDCCD4;stroke-width:0.5;stroke-miterlimit:10;}
	.st32{clip-path:url(#SVGID_14_);}
	.st33{clip-path:url(#SVGID_18_);fill:none;stroke:#558ED5;stroke-width:0.75;stroke-miterlimit:8;}
	.st34{fill:#4D4D4D;}
	.st35{clip-path:url(#SVGID_20_);}
</style>
<g>
	<g>
		<path class="st13" d="M27.65,40.73c-0.85-0.14-2.01-0.23-3.1-0.53c-0.82-0.22-1.57-0.23-2.38-0.08c-1.87,0.35-3.74,0.69-5.62,0.99
			c-0.27,0.04-0.68-0.05-0.84-0.24c-0.15-0.19-0.16-0.61-0.06-0.86c0.52-1.31,1.09-2.6,1.66-3.89c0.14-0.32,0.14-0.56-0.08-0.86
			c-5.75-7.92-1.53-18.89,8.05-20.93c7.75-1.65,15.29,4.01,15.89,11.93c0.53,6.97-4.28,13.13-11.14,14.25
			C29.36,40.62,28.65,40.64,27.65,40.73z M17.47,39.45c0.13,0,0.2,0.01,0.26,0c1.68-0.3,3.37-0.58,5.05-0.9
			c0.55-0.1,1.06-0.02,1.6,0.09c1.25,0.26,2.53,0.58,3.8,0.56c5.93-0.08,10.84-4.59,11.53-10.49c0.92-7.84-5.94-14.38-13.71-13.05
			c-8.93,1.53-12.94,11.95-7.32,19.07c0.37,0.47,0.46,0.89,0.2,1.44C18.39,37.24,17.95,38.33,17.47,39.45z"/>
		<path class="st13" d="M27.96,28.35c1.43,0,2.86,0,4.28,0c0.59,0,0.9,0.26,0.91,0.72c0,0.46-0.32,0.73-0.9,0.74
			c-2.87,0.01-5.75,0.01-8.62,0c-0.59,0-0.9-0.27-0.9-0.73c0-0.47,0.31-0.72,0.9-0.72C25.07,28.34,26.51,28.35,27.96,28.35z"/>
		<path class="st13" d="M25.36,26.16c-0.62,0-1.23,0.01-1.85,0c-0.51-0.01-0.79-0.29-0.79-0.72c0-0.43,0.29-0.7,0.81-0.71
			c1.25-0.01,2.5-0.01,3.75,0c0.51,0,0.8,0.29,0.79,0.72c0,0.43-0.29,0.7-0.81,0.71C26.62,26.17,25.99,26.16,25.36,26.16z"/>
	</g>
	<path class="st13" d="M27.93,55.28C13.08,55.28,1,43.2,1,28.35S13.08,1.42,27.93,1.42S54.86,13.5,54.86,28.35
		S42.78,55.28,27.93,55.28z M27.93,2.31c-14.36,0-26.04,11.68-26.04,26.04s11.68,26.04,26.04,26.04S53.97,42.7,53.97,28.35
		S42.29,2.31,27.93,2.31z"/>
</g>
</svg>
