<?xml version="1.0" encoding="utf-8"?>
<!-- Generator: Adobe Illustrator 25.2.0, SVG Export Plug-In . SVG Version: 6.00 Build 0)  -->
<svg version="1.1" id="Layer_1" xmlns="http://www.w3.org/2000/svg" xmlns:xlink="http://www.w3.org/1999/xlink" x="0px" y="0px"
	 viewBox="0 0 56.69 56.69" style="enable-background:new 0 0 56.69 56.69;" xml:space="preserve">
<style type="text/css">
	.st0{fill:#505C91;}
	.st1{fill:#F9F9F9;}
	.st2{fill:#CACED8;}
	.st3{fill:#505D70;}
	.st4{fill:#F14A16;}
	.st5{fill:#B3B3B3;}
	.st6{fill:#FFFFFF;}
	.st7{fill:#FEFEFE;}
	.st8{fill:#FDD32D;}
	.st9{clip-path:url(#SVGID_2_);}
	.st10{clip-path:url(#SVGID_6_);}
	.st11{clip-path:url(#SVGID_8_);}
	.st12{fill:#19D819;}
	.st13{fill:#989898;}
	.st14{fill:#4C9FFF;}
	.st15{stroke:#FFFFFF;stroke-miterlimit:10;}
	.st16{fill:#FE591F;}
	.st17{fill:#FD780F;}
	.st18{fill:#888888;}
	.st19{fill:#606060;}
	.st20{fill:#55A35B;}
	.st21{fill:#F7F8FA;}
	.st22{fill:#F4F4F4;}
	.st23{fill:#808080;}
	.st24{fill:#041562;}
	.st25{fill:#B7BBBF;}
	.st26{fill:#00C9A7;}
	.st27{fill:none;stroke:#E7EAF3;stroke-miterlimit:10;}
	.st28{fill:#D1CFCF;stroke:#0000FF;stroke-miterlimit:10;}
	.st29{fill:none;stroke:#231815;}
	.st30{fill:none;stroke:#E8EDEF;stroke-miterlimit:10;}
	.st31{fill:none;stroke:#BDCCD4;stroke-width:0.5;stroke-miterlimit:10;}
	.st32{clip-path:url(#SVGID_14_);}
	.st33{clip-path:url(#SVGID_18_);fill:none;stroke:#558ED5;stroke-width:0.75;stroke-miterlimit:8;}
	.st34{fill:#4D4D4D;}
	.st35{clip-path:url(#SVGID_20_);}
</style>
<g>
	<g>
		<path class="st12" d="M55.05,25.59C53.85,9.84,38.86-1.41,23.44,1.87C4.38,5.94-4.02,27.74,7.42,43.5
			c0.44,0.61,0.45,1.07,0.16,1.71c-1.14,2.56-2.27,5.13-3.31,7.73c-0.2,0.5-0.19,1.35,0.11,1.72c0.31,0.38,1.13,0.57,1.66,0.48
			c3.74-0.6,7.46-1.27,11.18-1.96c1.6-0.3,3.1-0.29,4.72,0.16c2.18,0.6,4.47,0.78,6.17,1.05c1.98-0.18,3.39-0.22,4.77-0.45
			C46.54,51.71,56.1,39.46,55.05,25.59z M19.92,22.54c2.48-0.02,4.97-0.02,7.46,0c1.01,0.01,1.58,0.58,1.57,1.44
			c-0.01,0.86-0.59,1.39-1.61,1.41c-1.26,0.02-2.52,0.01-3.78,0.01c-1.23,0-2.45,0.02-3.68-0.01c-1.01-0.02-1.58-0.57-1.57-1.44
			C18.33,23.09,18.9,22.55,19.92,22.54z M20.11,29.75c2.88-0.01,5.75,0,8.63,0c2.84,0,5.68-0.01,8.52,0c1.17,0,1.8,0.51,1.8,1.43
			c0,0.92-0.63,1.46-1.8,1.46c-5.72,0.01-11.43,0.01-17.15,0c-1.17,0-1.8-0.54-1.8-1.46C18.32,30.26,18.93,29.76,20.11,29.75z"/>
		<path class="st6" d="M37.26,29.75c-2.84-0.01-5.68,0-8.52,0c-2.88,0-5.75-0.01-8.63,0c-1.18,0-1.79,0.51-1.79,1.44
			c0,0.92,0.62,1.46,1.8,1.46c5.72,0.01,11.43,0.01,17.15,0c1.17,0,1.8-0.55,1.8-1.46C39.06,30.27,38.43,29.76,37.26,29.75z"/>
		<path class="st6" d="M19.89,25.39c1.22,0.03,2.45,0.01,3.68,0.01c1.26,0,2.52,0.02,3.78-0.01c1.02-0.02,1.6-0.55,1.61-1.41
			c0.01-0.86-0.57-1.43-1.57-1.44c-2.48-0.02-4.97-0.02-7.46,0c-1.03,0.01-1.6,0.54-1.6,1.4C18.31,24.81,18.88,25.36,19.89,25.39z"
			/>
	</g>
</g>
</svg>
