<?xml version="1.0" encoding="utf-8"?>
<!-- Generator: Adobe Illustrator 25.2.0, SVG Export Plug-In . SVG Version: 6.00 Build 0)  -->
<svg version="1.1" id="Layer_1" xmlns="http://www.w3.org/2000/svg" xmlns:xlink="http://www.w3.org/1999/xlink" x="0px" y="0px"
	 viewBox="0 0 56.69 56.69" style="enable-background:new 0 0 56.69 56.69;" xml:space="preserve">
<style type="text/css">
	.st0{fill:#505C91;}
	.st1{fill:#F9F9F9;}
	.st2{fill:#CACED8;}
	.st3{fill:#505D70;}
	.st4{fill:#F14A16;}
	.st5{fill:#B3B3B3;}
	.st6{fill:#FFFFFF;}
	.st7{fill:#FEFEFE;}
	.st8{fill:#FDD32D;}
	.st9{clip-path:url(#SVGID_2_);}
	.st10{clip-path:url(#SVGID_6_);}
	.st11{clip-path:url(#SVGID_8_);}
	.st12{fill:#19D819;}
	.st13{fill:#989898;}
	.st14{fill:#4C9FFF;}
	.st15{stroke:#FFFFFF;stroke-miterlimit:10;}
	.st16{fill:#FE591F;}
	.st17{fill:#FD780F;}
	.st18{fill:#888888;}
	.st19{fill:#606060;}
	.st20{fill:#55A35B;}
	.st21{fill:#F7F8FA;}
	.st22{fill:#F4F4F4;}
	.st23{fill:#808080;}
	.st24{fill:#041562;}
	.st25{fill:#B7BBBF;}
	.st26{fill:#00C9A7;}
	.st27{fill:none;stroke:#E7EAF3;stroke-miterlimit:10;}
	.st28{fill:#D1CFCF;stroke:#0000FF;stroke-miterlimit:10;}
	.st29{fill:none;stroke:#231815;}
	.st30{fill:none;stroke:#E8EDEF;stroke-miterlimit:10;}
	.st31{fill:none;stroke:#BDCCD4;stroke-width:0.5;stroke-miterlimit:10;}
	.st32{clip-path:url(#SVGID_14_);}
	.st33{clip-path:url(#SVGID_18_);fill:none;stroke:#558ED5;stroke-width:0.75;stroke-miterlimit:8;}
	.st34{fill:#4D4D4D;}
	.st35{clip-path:url(#SVGID_20_);}
</style>
<g>
	<path d="M14.14,14.04c0-2.17-0.03-4.2,0.01-6.22c0.02-0.87,0.08-1.77,0.33-2.59c0.7-2.27,2.83-3.89,5.2-3.9
		c10.02-0.03,20.04-0.05,30.06,0.01c3.04,0.02,5.46,2.59,5.5,5.67c0.04,3.54,0.01,7.08,0.01,10.62c0,9.01,0,18.01,0,27.02
		c0,6.24-4.26,10.51-10.47,10.52c-11.67,0-23.33,0-35,0c-4.99,0-8.36-3.39-8.36-8.39c0-8.8,0-17.59,0-26.39
		c0-3.97,2.35-6.33,6.33-6.35C9.82,14.03,11.88,14.04,14.14,14.04z M15.74,51.94c0.32,0.04,0.45,0.06,0.58,0.06
		c9.71,0,19.41,0.03,29.12-0.01c3.67-0.02,6.65-3.06,6.65-6.77c0.02-12.62,0.01-25.24,0.01-37.85c0-1.83-1.05-2.89-2.86-2.89
		C39.53,4.47,29.83,4.47,20.12,4.5c-0.59,0-1.25,0.23-1.76,0.54c-0.97,0.61-1.06,1.64-1.06,2.7c0.01,12.79,0,25.59,0.01,38.38
		C17.32,48.16,17.09,50.1,15.74,51.94z M14.14,17.21c-2.27,0-4.4-0.01-6.53,0c-2.04,0.02-3.03,1.01-3.03,3.04
		c-0.01,3.47,0,6.94,0,10.41c0,5.5-0.02,11.01,0.01,16.51c0.02,3.33,3.11,5.59,6.23,4.61c2.11-0.67,3.32-2.47,3.32-5.04
		c0.01-9.43,0-18.86,0-28.29C14.14,18.1,14.14,17.75,14.14,17.21z"/>
	<path d="M34.75,37.18c3.61,0,7.21,0,10.82,0c0.38,0,0.88-0.08,1.12,0.12c0.46,0.39,1.07,0.96,1.07,1.46c0,0.5-0.6,1.08-1.07,1.46
		c-0.27,0.22-0.81,0.12-1.23,0.12c-7.18,0.01-14.36,0.01-21.54,0c-0.38,0-0.78,0.01-1.15-0.08c-0.78-0.17-1.2-0.7-1.2-1.5
		c0-0.8,0.41-1.33,1.19-1.51c0.37-0.08,0.76-0.08,1.15-0.08C27.54,37.18,31.15,37.18,34.75,37.18z"/>
	<path d="M34.65,26.06c3.61,0,7.21,0,10.82,0c0.31,0,0.63-0.01,0.94,0.03c0.9,0.11,1.41,0.67,1.42,1.54
		c0.01,0.82-0.47,1.38-1.31,1.53c-0.34,0.06-0.7,0.06-1.05,0.06c-7.18,0-14.36,0-21.54,0c-0.38,0-0.78,0-1.15-0.08
		c-0.83-0.19-1.25-0.76-1.2-1.61c0.04-0.8,0.5-1.29,1.29-1.42c0.34-0.06,0.7-0.04,1.05-0.04C27.51,26.06,31.08,26.06,34.65,26.06z"
		/>
	<path d="M30.44,19.31c-2.35,0-4.69,0.02-7.04-0.01c-1.24-0.01-1.96-0.75-1.8-1.79c0.13-0.9,0.74-1.35,1.6-1.35
		c4.87-0.02,9.73-0.02,14.6,0c0.97,0.01,1.64,0.72,1.64,1.57c0,0.85-0.67,1.54-1.65,1.56C35.34,19.32,32.89,19.3,30.44,19.31
		C30.44,19.3,30.44,19.3,30.44,19.31z"/>
</g>
</svg>
