<?xml version="1.0" encoding="utf-8"?>
<!-- Generator: Adobe Illustrator 25.2.0, SVG Export Plug-In . SVG Version: 6.00 Build 0)  -->
<svg version="1.1" id="Layer_1" xmlns="http://www.w3.org/2000/svg" xmlns:xlink="http://www.w3.org/1999/xlink" x="0px" y="0px"
	 viewBox="0 0 56.69 56.69" style="enable-background:new 0 0 56.69 56.69;" xml:space="preserve">
<style type="text/css">
	.st0{fill:#505C91;}
	.st1{fill:#F9F9F9;}
	.st2{fill:#CACED8;}
	.st3{fill:#505D70;}
	.st4{fill:#F14A16;}
	.st5{fill:#B3B3B3;}
	.st6{fill:#FFFFFF;}
	.st7{fill:#FEFEFE;}
	.st8{fill:#FDD32D;}
	.st9{clip-path:url(#SVGID_2_);}
	.st10{clip-path:url(#SVGID_6_);}
	.st11{clip-path:url(#SVGID_8_);}
	.st12{fill:#19D819;}
	.st13{fill:#989898;}
	.st14{fill:#4C9FFF;}
	.st15{stroke:#FFFFFF;stroke-miterlimit:10;}
	.st16{fill:#FE591F;}
	.st17{fill:#FD780F;}
	.st18{fill:#888888;}
	.st19{fill:#606060;}
	.st20{fill:#55A35B;}
	.st21{fill:#F7F8FA;}
	.st22{fill:#F4F4F4;}
	.st23{fill:#808080;}
	.st24{fill:#041562;}
	.st25{fill:#B7BBBF;}
	.st26{fill:#00C9A7;}
	.st27{fill:none;stroke:#E7EAF3;stroke-miterlimit:10;}
	.st28{fill:#D1CFCF;stroke:#0000FF;stroke-miterlimit:10;}
	.st29{fill:none;stroke:#231815;}
	.st30{fill:none;stroke:#E8EDEF;stroke-miterlimit:10;}
	.st31{fill:none;stroke:#BDCCD4;stroke-width:0.5;stroke-miterlimit:10;}
	.st32{clip-path:url(#SVGID_14_);}
	.st33{clip-path:url(#SVGID_18_);fill:none;stroke:#558ED5;stroke-width:0.75;stroke-miterlimit:8;}
	.st34{fill:#4D4D4D;}
	.st35{clip-path:url(#SVGID_20_);}
</style>
<circle class="st16" cx="28.35" cy="27.77" r="26.93"/>
<g>
	<path class="st6" d="M12.79,46.23c-0.5-0.42-0.62-0.97-0.62-1.6c-0.02-10.21-0.06-20.43-0.09-30.64c0-0.13-0.03-0.25-0.04-0.38
		c0.06-0.23,0.12-0.45,0.19-0.68c0.06-0.07,0.11-0.14,0.17-0.21c0.47-0.62,1.23-0.84,2-0.59c0.67,0.22,1.11,0.82,1.12,1.58
		c0.02,2.79,0.03,5.57,0.04,8.36c0.03,7.53,0.05,15.05,0.07,22.58c0,0.18,0.01,0.37-0.02,0.55c-0.09,0.69-0.59,1.15-1.29,1.19
		c-0.26,0.01-0.51,0.03-0.77,0.04C13.29,46.37,13.04,46.3,12.79,46.23z"/>
	<path class="st6" d="M16.96,34.01c0-1.39-0.01-2.71-0.01-4.04c-0.02-5.37-0.01-10.73-0.08-16.1c-0.01-0.73,0.24-1.01,0.81-1.28
		c2.03-0.97,4.15-1.25,6.36-0.96c2.2,0.29,4.28,1.02,6.35,1.79c2.55,0.96,5.06,2.04,7.75,2.58c3.18,0.65,6.17,0.28,8.9-1.59
		c0.06-0.04,0.13-0.11,0.2-0.12c0.16-0.02,0.35-0.08,0.46-0.01c0.08,0.05,0.12,0.3,0.07,0.42c-0.17,0.49-0.37,0.97-0.58,1.45
		c-1.5,3.47-3.19,6.85-5.1,10.12c-0.21,0.36-0.17,0.66,0.05,1.01c1.53,2.38,3.32,4.54,5.43,6.44c0.32,0.29,0.38,0.59,0.17,0.93
		c-0.18,0.28-0.38,0.57-0.65,0.76c-2.39,1.65-5.04,2.16-7.89,1.76c-2.36-0.33-4.57-1.16-6.78-2c-2.4-0.91-4.78-1.9-7.32-2.39
		c-2.78-0.54-5.45-0.31-7.95,1.12C17.12,33.95,17.07,33.97,16.96,34.01z"/>
</g>
</svg>
