<?xml version="1.0" encoding="utf-8"?>
<!-- Generator: Adobe Illustrator 25.2.0, SVG Export Plug-In . SVG Version: 6.00 Build 0)  -->
<svg version="1.1" id="Layer_1" xmlns="http://www.w3.org/2000/svg" xmlns:xlink="http://www.w3.org/1999/xlink" x="0px" y="0px"
	 viewBox="0 0 56.69 56.69" style="enable-background:new 0 0 56.69 56.69;" xml:space="preserve">
<style type="text/css">
	.st0{fill:#505C91;}
	.st1{fill:#F9F9F9;}
	.st2{fill:#CACED8;}
	.st3{fill:#505D70;}
	.st4{fill:#F14A16;}
	.st5{fill:#B3B3B3;}
	.st6{fill:#FFFFFF;}
	.st7{fill:#FEFEFE;}
	.st8{fill:#FDD32D;}
	.st9{clip-path:url(#SVGID_2_);}
	.st10{clip-path:url(#SVGID_6_);}
	.st11{clip-path:url(#SVGID_8_);}
	.st12{fill:#19D819;}
	.st13{fill:#989898;}
	.st14{fill:#4C9FFF;}
	.st15{stroke:#FFFFFF;stroke-miterlimit:10;}
	.st16{fill:#FE591F;}
	.st17{fill:#FD780F;}
	.st18{fill:#888888;}
	.st19{fill:#606060;}
	.st20{fill:#55A35B;}
	.st21{fill:#F7F8FA;}
	.st22{fill:#F4F4F4;}
	.st23{fill:#808080;}
	.st24{fill:#041562;}
	.st25{fill:#B7BBBF;}
	.st26{fill:#00C9A7;}
	.st27{fill:none;stroke:#E7EAF3;stroke-miterlimit:10;}
	.st28{fill:#D1CFCF;stroke:#0000FF;stroke-miterlimit:10;}
	.st29{fill:none;stroke:#231815;}
	.st30{fill:none;stroke:#E8EDEF;stroke-miterlimit:10;}
	.st31{fill:none;stroke:#BDCCD4;stroke-width:0.5;stroke-miterlimit:10;}
	.st32{clip-path:url(#SVGID_14_);}
	.st33{clip-path:url(#SVGID_18_);fill:none;stroke:#558ED5;stroke-width:0.75;stroke-miterlimit:8;}
	.st34{fill:#4D4D4D;}
	.st35{clip-path:url(#SVGID_20_);}
</style>
<g>
	<path d="M26.66,1.3c1.12,0,2.24,0,3.37,0c0.15,0.03,0.3,0.07,0.46,0.09c1.43,0.23,2.89,0.35,4.3,0.69
		c14.04,3.44,22.86,17.44,19.94,31.61C52.24,45.73,41.8,54.65,29.53,55.14c-6.68,0.27-12.7-1.65-17.94-5.84
		c-5.32-4.25-8.59-9.76-9.78-16.47c-0.17-0.96-0.27-1.94-0.4-2.91c0-1.12,0-2.24,0-3.37c0.08-0.64,0.14-1.28,0.23-1.92
		c0.77-5.48,2.97-10.3,6.69-14.4c4.16-4.59,9.3-7.46,15.42-8.52C24.72,1.54,25.69,1.44,26.66,1.3z M48.48,41.65
		c5.95-8.46,6-22.25-3.79-31.32c-9.41-8.71-24.3-8.41-33.45,0.74c-9.24,9.24-8.65,22.67-3.02,30.56c3.44-4.97,8.07-8.29,13.93-9.92
		c-5.65-3.97-5.97-11.93-1.46-16.45c4.19-4.2,10.98-4.24,15.24-0.07c4.53,4.43,4.35,12.49-1.38,16.52
		C40.4,33.35,45.03,36.67,48.48,41.65z M46.77,43.92c-4.38-6.59-10.46-10.27-18.43-10.27c-7.97,0-14.05,3.68-18.43,10.27
		C19.44,55.3,37.27,55.28,46.77,43.92z M28.57,30.92c4.57-0.22,8.05-3.92,7.85-8.38c-0.2-4.54-4.01-8-8.57-7.76
		c-4.34,0.22-7.82,4.08-7.59,8.43C20.49,27.63,24.26,31.13,28.57,30.92z"/>
</g>
</svg>
