<?xml version="1.0" encoding="utf-8"?>
<!-- Generator: Adobe Illustrator 25.2.0, SVG Export Plug-In . SVG Version: 6.00 Build 0)  -->
<svg version="1.1" id="Layer_1" xmlns="http://www.w3.org/2000/svg" xmlns:xlink="http://www.w3.org/1999/xlink" x="0px" y="0px"
	 viewBox="0 0 56.69 56.69" style="enable-background:new 0 0 56.69 56.69;" xml:space="preserve">
<style type="text/css">
	.st0{fill:#505C91;}
	.st1{fill:#F9F9F9;}
	.st2{fill:#CACED8;}
	.st3{fill:#505D70;}
	.st4{fill:#F14A16;}
	.st5{fill:#B3B3B3;}
	.st6{fill:#FFFFFF;}
	.st7{fill:#FEFEFE;}
	.st8{fill:#FDD32D;}
	.st9{clip-path:url(#SVGID_2_);}
	.st10{clip-path:url(#SVGID_6_);}
	.st11{clip-path:url(#SVGID_8_);}
	.st12{fill:#19D819;}
	.st13{fill:#989898;}
	.st14{fill:#4C9FFF;}
	.st15{stroke:#FFFFFF;stroke-miterlimit:10;}
	.st16{fill:#FE591F;}
	.st17{fill:#FD780F;}
	.st18{fill:#888888;}
	.st19{fill:#606060;}
	.st20{fill:#55A35B;}
	.st21{fill:#F7F8FA;}
	.st22{fill:#F4F4F4;}
	.st23{fill:#808080;}
	.st24{fill:#041562;}
	.st25{fill:#B7BBBF;}
	.st26{fill:#00C9A7;}
	.st27{fill:none;stroke:#E7EAF3;stroke-miterlimit:10;}
	.st28{fill:#D1CFCF;stroke:#0000FF;stroke-miterlimit:10;}
	.st29{fill:none;stroke:#231815;}
	.st30{fill:none;stroke:#E8EDEF;stroke-miterlimit:10;}
	.st31{fill:none;stroke:#BDCCD4;stroke-width:0.5;stroke-miterlimit:10;}
	.st32{clip-path:url(#SVGID_14_);}
	.st33{clip-path:url(#SVGID_18_);fill:none;stroke:#558ED5;stroke-width:0.75;stroke-miterlimit:8;}
	.st34{fill:#4D4D4D;}
	.st35{clip-path:url(#SVGID_20_);}
</style>
<g>
	<g>
		<circle cx="15.56" cy="24.96" r="3.39"/>
		<circle cx="28.41" cy="24.96" r="3.39"/>
		<circle cx="41.25" cy="24.96" r="3.39"/>
	</g>
	<path d="M14.22,55.68c-0.12,0-0.25-0.01-0.38-0.02c-2.03-0.22-3.46-1.81-3.48-3.87c-0.01-1.56-0.01-3.11-0.01-4.67l0-1.44
		c-1.34-0.41-2.5-0.96-3.53-1.68c-3.87-2.68-5.85-6.37-5.9-10.97c-0.06-5.87-0.06-12.08-0.01-18.98C0.98,7.37,5.67,1.98,12.34,0.95
		c0.62-0.1,1.29-0.14,2.1-0.14c9.28-0.01,18.57-0.01,27.85,0c6.55,0.01,11.86,4.27,13.21,10.61c0.19,0.88,0.29,1.85,0.29,2.88l0,0
		c0.02,6.15,0.02,12.31,0.01,18.46c-0.02,6.66-4.38,11.98-10.87,13.25c-0.98,0.19-1.94,0.22-2.75,0.22c-4.2,0.02-8.4,0-12.6,0.02
		c-0.02,0-0.07,0.02-0.09,0.03c-4.29,2.84-8.58,5.7-12.86,8.57C16.09,55.22,15.26,55.68,14.22,55.68z M30.79,3.8
		c-5.45,0-10.9,0-16.35,0.01c-0.66,0-1.18,0.03-1.64,0.11C7.61,4.71,3.96,8.9,3.92,14.08C3.86,20.96,3.86,27.15,3.93,33
		c0.04,3.57,1.59,6.44,4.61,8.54c1,0.7,2.2,1.2,3.66,1.53l1.17,0.27l0,3.79c0,1.55,0,3.1,0.01,4.64c0,0.38,0.14,0.84,0.79,0.91
		c0.15,0.01,0.35-0.01,0.81-0.32c4.29-2.87,8.57-5.73,12.87-8.58c0.5-0.33,1.13-0.52,1.74-0.53c4.2-0.02,8.4,0,12.6-0.02
		c0.67,0,1.46-0.03,2.19-0.17c5.04-0.98,8.43-5.13,8.44-10.31c0.01-6.15,0.01-12.3-0.01-18.45l0,0c0-0.82-0.08-1.59-0.22-2.27
		c-1.05-4.92-5.18-8.23-10.28-8.24C38.46,3.8,34.62,3.8,30.79,3.8z"/>
</g>
</svg>
