<?xml version="1.0" encoding="utf-8"?>
<!-- Generator: Adobe Illustrator 25.2.0, SVG Export Plug-In . SVG Version: 6.00 Build 0)  -->
<svg version="1.1" id="Layer_1" xmlns="http://www.w3.org/2000/svg" xmlns:xlink="http://www.w3.org/1999/xlink" x="0px" y="0px"
	 viewBox="0 0 56.69 56.69" style="enable-background:new 0 0 56.69 56.69;" xml:space="preserve">
<style type="text/css">
	.st0{fill:#505C91;}
	.st1{fill:#F9F9F9;}
	.st2{fill:#CACED8;}
	.st3{fill:#505D70;}
	.st4{fill:#F14A16;}
	.st5{fill:#B3B3B3;}
	.st6{fill:#FFFFFF;}
	.st7{fill:#FEFEFE;}
	.st8{fill:#FDD32D;}
	.st9{clip-path:url(#SVGID_2_);}
	.st10{clip-path:url(#SVGID_6_);}
	.st11{clip-path:url(#SVGID_8_);}
	.st12{fill:#19D819;}
	.st13{fill:#989898;}
	.st14{fill:#4C9FFF;}
	.st15{stroke:#FFFFFF;stroke-miterlimit:10;}
	.st16{fill:#FE591F;}
	.st17{fill:#FD780F;}
	.st18{fill:#888888;}
	.st19{fill:#606060;}
	.st20{fill:#55A35B;}
	.st21{fill:#F7F8FA;}
	.st22{fill:#F4F4F4;}
	.st23{fill:#808080;}
	.st24{fill:#041562;}
	.st25{fill:#B7BBBF;}
	.st26{fill:#00C9A7;}
	.st27{fill:none;stroke:#E7EAF3;stroke-miterlimit:10;}
	.st28{fill:#D1CFCF;stroke:#0000FF;stroke-miterlimit:10;}
	.st29{fill:none;stroke:#231815;}
	.st30{fill:none;stroke:#E8EDEF;stroke-miterlimit:10;}
	.st31{fill:none;stroke:#BDCCD4;stroke-width:0.5;stroke-miterlimit:10;}
	.st32{clip-path:url(#SVGID_14_);}
	.st33{clip-path:url(#SVGID_18_);fill:none;stroke:#558ED5;stroke-width:0.75;stroke-miterlimit:8;}
	.st34{fill:#4D4D4D;}
	.st35{clip-path:url(#SVGID_20_);}
</style>
<g>
	<circle class="st17" cx="28.21" cy="28.47" r="26.93"/>
	<path d="M15.87,22.94c1.18,0.47,2.33,0.93,3.57,1.43c-0.98,0.69-1.4,1.59-1.19,2.73c0.13,0.7,0.54,1.24,1.14,1.61
		c1.2,0.74,2.78,0.33,3.41-0.89c-0.84-0.59-1.04-1.29-0.54-1.94c0.44-0.57,1.27-0.65,1.8-0.17c0.62,0.55,0.54,1.3-0.2,2.04
		c0.89,0.47,2.29-0.12,2.85-1.2c0.72-1.39,0.13-2.73-1.61-3.64c1.01-1.21,2.01-2.41,3.03-3.63c-0.91-0.36-1.29-0.87-1.16-1.53
		c0.13-0.61,0.62-1.02,1.24-1.01c0.61,0.01,1.1,0.43,1.21,1.04c0.11,0.64-0.28,1.16-1.17,1.48c1.02,1.22,2.02,2.43,3.03,3.63
		c-1.7,0.95-2.26,2.11-1.7,3.46c0.48,1.16,1.71,1.76,2.98,1.42c-0.43-0.39-0.81-0.81-0.61-1.4c0.1-0.29,0.29-0.59,0.52-0.77
		c0.53-0.41,1.32-0.23,1.7,0.33c0.43,0.65,0.23,1.31-0.58,1.86c0.38,0.8,1.25,1.3,2.2,1.26c1.04-0.05,1.96-0.69,2.26-1.67
		c0.38-1.22-0.01-2.21-1.09-3.02c1.22-0.49,2.38-0.96,3.62-1.45c-0.37,1.67-0.72,3.25-1.07,4.83c-0.44,1.96-0.88,3.93-1.31,5.89
		c-0.07,0.3-0.16,0.42-0.49,0.42c-6.33-0.01-12.67-0.01-19-0.01c-0.23,0-0.41,0.02-0.48-0.31c-0.77-3.55-1.57-7.1-2.36-10.65
		C15.84,23.07,15.86,23.04,15.87,22.94z M28.18,27.97c-0.79,0.78-1.59,1.59-2.35,2.35c0.79,0.79,1.6,1.61,2.38,2.39
		c0.77-0.77,1.58-1.58,2.35-2.36C29.78,29.57,28.98,28.76,28.18,27.97z"/>
	<path d="M38.06,36.58c0,0.79,0,1.58,0,2.39c-6.57,0-13.13,0-19.73,0c0-0.78,0-1.56,0-2.39C24.89,36.58,31.46,36.58,38.06,36.58z"/>
</g>
</svg>
