<?xml version="1.0" encoding="utf-8"?>
<!-- Generator: Adobe Illustrator 25.2.0, SVG Export Plug-In . SVG Version: 6.00 Build 0)  -->
<svg version="1.1" id="Layer_1" xmlns="http://www.w3.org/2000/svg" xmlns:xlink="http://www.w3.org/1999/xlink" x="0px" y="0px"
	 viewBox="0 0 56.69 56.69" style="enable-background:new 0 0 56.69 56.69;" xml:space="preserve">
<style type="text/css">
	.st0{fill:#505C91;}
	.st1{fill:#F9F9F9;}
	.st2{fill:#CACED8;}
	.st3{fill:#505D70;}
	.st4{fill:#F14A16;}
	.st5{fill:#B3B3B3;}
	.st6{fill:#FFFFFF;}
	.st7{fill:#FEFEFE;}
	.st8{fill:#FDD32D;}
	.st9{clip-path:url(#SVGID_2_);}
	.st10{clip-path:url(#SVGID_6_);}
	.st11{clip-path:url(#SVGID_8_);}
	.st12{fill:#19D819;}
	.st13{fill:#989898;}
	.st14{fill:#4C9FFF;}
	.st15{stroke:#FFFFFF;stroke-miterlimit:10;}
	.st16{fill:#FE591F;}
	.st17{fill:#FD780F;}
	.st18{fill:#888888;}
	.st19{fill:#606060;}
	.st20{fill:#55A35B;}
	.st21{fill:#F7F8FA;}
	.st22{fill:#F4F4F4;}
	.st23{fill:#808080;}
	.st24{fill:#041562;}
	.st25{fill:#B7BBBF;}
	.st26{fill:#00C9A7;}
	.st27{fill:none;stroke:#E7EAF3;stroke-miterlimit:10;}
	.st28{fill:#D1CFCF;stroke:#0000FF;stroke-miterlimit:10;}
	.st29{fill:none;stroke:#231815;}
	.st30{fill:none;stroke:#E8EDEF;stroke-miterlimit:10;}
	.st31{fill:none;stroke:#BDCCD4;stroke-width:0.5;stroke-miterlimit:10;}
	.st32{clip-path:url(#SVGID_14_);}
	.st33{clip-path:url(#SVGID_18_);fill:none;stroke:#558ED5;stroke-width:0.75;stroke-miterlimit:8;}
	.st34{fill:#4D4D4D;}
	.st35{clip-path:url(#SVGID_20_);}
</style>
<g>
	<g>
		<path class="st5" d="M29.61,12.88c0,1.5,0,2.89,0,4.39c-0.39,0-0.74,0-1.09,0c-7.09-0.01-14.17-0.02-21.26-0.04
			c-1.29,0-1.37,0.08-1.37,1.38c0,8.88,0,17.76,0,26.64c0,1.34,0.07,1.41,1.44,1.41c13.13,0,26.25,0,39.38,0
			c1.37,0,1.44-0.07,1.44-1.4c0-4.28,0-8.55,0-12.83c0-0.32,0-0.64,0-1.08c1.4,0,2.71-0.02,4.01,0.03c0.15,0.01,0.4,0.46,0.4,0.7
			c0.04,1.73,0.02,3.47,0.02,5.2c0,3.38,0,6.76-0.01,10.14c-0.01,2.25-1.33,3.58-3.55,3.58c-14.59,0.01-29.19-0.02-43.78,0.04
			c-2.53,0.01-3.83-1.81-3.82-3.83c0.07-10.17,0.03-20.33,0.03-30.5c0-2.6,1.23-3.83,3.84-3.83c7.77,0,15.55,0,23.32,0
			C28.91,12.88,29.21,12.88,29.61,12.88z"/>
		<path class="st5" d="M31.27,20.88c4.31,7.46,8.51,14.74,12.77,22.13c-11.38,0-22.63,0-34.07,0c2.7-4.68,5.36-9.29,8.09-14.02
			c1.45,2.49,2.82,4.85,4.27,7.36C25.34,31.14,28.26,26.09,31.27,20.88z"/>
		<path class="st5" d="M55.28,12.85c0,1.53,0,2.89,0,4.39c-1.19,0-2.37,0-3.55,0c-1.16,0-2.32,0-3.58,0c0,2.42,0,4.76,0,7.15
			c-1.5,0-2.89,0-4.41,0c0-2.35,0-4.69,0-7.11c-2.44,0-4.76,0-7.16,0c0-1.46,0-2.85,0-4.33c0.3-0.02,0.61-0.06,0.93-0.06
			c1.7-0.01,3.41-0.06,5.11,0.02c0.95,0.05,1.15-0.29,1.12-1.17c-0.06-1.76,0-3.52-0.03-5.29c-0.01-0.64,0.21-0.83,0.83-0.81
			c1.16,0.04,2.32,0.01,3.59,0.01c0,2.42,0,4.76,0,7.19C50.54,12.85,52.86,12.85,55.28,12.85z"/>
	</g>
	<path class="st5" d="M20.82,23.58c0.01,1.47-1.24,2.74-2.72,2.76c-1.49,0.03-2.82-1.29-2.79-2.78c0.02-1.46,1.32-2.74,2.76-2.73
		C19.53,20.84,20.81,22.13,20.82,23.58z"/>
</g>
</svg>
