<?xml version="1.0" encoding="utf-8"?>
<!-- Generator: Adobe Illustrator 25.2.0, SVG Export Plug-In . SVG Version: 6.00 Build 0)  -->
<svg version="1.1" id="Layer_1" xmlns="http://www.w3.org/2000/svg" xmlns:xlink="http://www.w3.org/1999/xlink" x="0px" y="0px"
	 viewBox="0 0 56.69 56.69" style="enable-background:new 0 0 56.69 56.69;" xml:space="preserve">
<style type="text/css">
	.st0{fill:#505C91;}
	.st1{fill:#F9F9F9;}
	.st2{fill:#CACED8;}
	.st3{fill:#505D70;}
	.st4{fill:#F14A16;}
	.st5{fill:#B3B3B3;}
	.st6{fill:#FFFFFF;}
	.st7{fill:#FEFEFE;}
	.st8{fill:#FDD32D;}
	.st9{clip-path:url(#SVGID_2_);}
	.st10{clip-path:url(#SVGID_6_);}
	.st11{clip-path:url(#SVGID_8_);}
	.st12{fill:#19D819;}
	.st13{fill:#989898;}
	.st14{fill:#4C9FFF;}
	.st15{stroke:#FFFFFF;stroke-miterlimit:10;}
	.st16{fill:#FE591F;}
	.st17{fill:#FD780F;}
	.st18{fill:#888888;}
	.st19{fill:#606060;}
	.st20{fill:#55A35B;}
	.st21{fill:#F7F8FA;}
	.st22{fill:#F4F4F4;}
	.st23{fill:#808080;}
	.st24{fill:#041562;}
	.st25{fill:#B7BBBF;}
	.st26{fill:#00C9A7;}
	.st27{fill:none;stroke:#E7EAF3;stroke-miterlimit:10;}
	.st28{fill:#D1CFCF;stroke:#0000FF;stroke-miterlimit:10;}
	.st29{fill:none;stroke:#231815;}
	.st30{fill:none;stroke:#E8EDEF;stroke-miterlimit:10;}
	.st31{fill:none;stroke:#BDCCD4;stroke-width:0.5;stroke-miterlimit:10;}
	.st32{clip-path:url(#SVGID_14_);}
	.st33{clip-path:url(#SVGID_18_);fill:none;stroke:#558ED5;stroke-width:0.75;stroke-miterlimit:8;}
	.st34{fill:#4D4D4D;}
	.st35{clip-path:url(#SVGID_20_);}
</style>
<path class="st20" d="M20.07,30.16c-2.68,0-5.2,0-7.71,0c-2.71,0-2.84-0.2-1.63-2.62c4.14-8.29,8.3-16.58,12.41-24.88
	c0.45-0.91,1-1.26,2.02-1.24c4.27,0.05,8.55,0.01,12.82,0.05c0.5,0,1.18,0.18,1.43,0.53c0.18,0.26-0.09,0.99-0.34,1.39
	c-3.1,4.95-6.24,9.88-9.37,14.82c-0.2,0.32-0.38,0.65-0.64,1.09c0.45,0.03,0.78,0.06,1.1,0.06c2.94,0,5.89-0.02,8.83,0.03
	c0.46,0.01,1.15,0.22,1.31,0.54c0.15,0.32-0.11,1-0.4,1.35c-9.32,11.11-18.66,22.2-28,33.29c-0.39,0.46-0.81,0.99-1.49,0.53
	c-0.65-0.44-0.37-1.04-0.13-1.6c3.11-7.38,6.21-14.76,9.31-22.15C19.74,31.01,19.87,30.66,20.07,30.16z"/>
</svg>
