<?xml version="1.0" encoding="utf-8"?>
<!-- Generator: Adobe Illustrator 25.2.0, SVG Export Plug-In . SVG Version: 6.00 Build 0)  -->
<svg version="1.1" id="Layer_1" xmlns="http://www.w3.org/2000/svg" xmlns:xlink="http://www.w3.org/1999/xlink" x="0px" y="0px"
	 viewBox="0 0 56.69 56.69" style="enable-background:new 0 0 56.69 56.69;" xml:space="preserve">
<style type="text/css">
	.st0{fill:#505C91;}
	.st1{fill:#F9F9F9;}
	.st2{fill:#CACED8;}
	.st3{fill:#505D70;}
	.st4{fill:#F14A16;}
	.st5{fill:#B3B3B3;}
	.st6{fill:#FFFFFF;}
	.st7{fill:#FEFEFE;}
	.st8{fill:#FDD32D;}
	.st9{clip-path:url(#SVGID_2_);}
	.st10{clip-path:url(#SVGID_6_);}
	.st11{clip-path:url(#SVGID_8_);}
	.st12{fill:#19D819;}
	.st13{fill:#989898;}
	.st14{fill:#4C9FFF;}
	.st15{stroke:#FFFFFF;stroke-miterlimit:10;}
	.st16{fill:#FE591F;}
	.st17{fill:#FD780F;}
	.st18{fill:#888888;}
	.st19{fill:#606060;}
	.st20{fill:#55A35B;}
	.st21{fill:#F7F8FA;}
	.st22{fill:#F4F4F4;}
	.st23{fill:#808080;}
	.st24{fill:#041562;}
	.st25{fill:#B7BBBF;}
	.st26{fill:#00C9A7;}
	.st27{fill:none;stroke:#E7EAF3;stroke-miterlimit:10;}
	.st28{fill:#D1CFCF;stroke:#0000FF;stroke-miterlimit:10;}
	.st29{fill:none;stroke:#231815;}
	.st30{fill:none;stroke:#E8EDEF;stroke-miterlimit:10;}
	.st31{fill:none;stroke:#BDCCD4;stroke-width:0.5;stroke-miterlimit:10;}
	.st32{clip-path:url(#SVGID_14_);}
	.st33{clip-path:url(#SVGID_18_);fill:none;stroke:#558ED5;stroke-width:0.75;stroke-miterlimit:8;}
	.st34{fill:#4D4D4D;}
	.st35{clip-path:url(#SVGID_20_);}
</style>
<g>
	<g>
		<path class="st16" d="M5.98,7.83c1.26-0.07,2.44-0.11,3.6-0.21C16.13,7.07,22.2,5.09,27.76,1.6c0.36-0.22,0.6-0.25,0.98-0.01
			c4.44,2.8,9.23,4.71,14.4,5.58c2.16,0.36,4.38,0.42,6.57,0.61c0.25,0.02,0.51,0,0.82,0c0,2.1,0,4.1,0,6.11
			c0,6.09-0.08,12.18,0.03,18.27c0.06,3.63-1.05,6.81-3.08,9.73c-2.57,3.69-5.9,6.58-9.61,9.07c-2.34,1.57-4.79,2.93-7.45,3.9
			c-1.46,0.53-2.89,0.58-4.33,0c-7.28-2.97-13.42-7.4-17.76-14.06c-1.6-2.46-2.4-5.17-2.38-8.16C6.02,24.62,5.98,16.61,5.98,8.6
			C5.98,8.36,5.98,8.12,5.98,7.83z M10.42,11.81c0,0.28,0,0.52,0,0.75c0,6.66,0.03,13.31-0.02,19.97c-0.02,2.25,0.6,4.25,1.77,6.12
			c1.68,2.7,3.9,4.92,6.38,6.87c2.82,2.22,5.85,4.11,9.25,5.33c0.28,0.1,0.65,0.1,0.93,0c2.64-0.91,5.01-2.32,7.32-3.86
			c3.25-2.17,6.02-4.82,8.17-8.1c1.28-1.96,1.94-4.08,1.92-6.47c-0.07-6.57-0.02-13.14-0.03-19.71c0-0.26,0-0.51,0-0.76
			c-1.4-0.2-2.72-0.35-4.03-0.59c-4.72-0.87-9.21-2.42-13.44-4.7c-0.2-0.11-0.55-0.11-0.76,0C22.42,9.48,16.62,11.15,10.42,11.81z"
			/>
		<path class="st16" d="M19.32,24.91c0.27,0.2,0.52,0.33,0.71,0.52c1.59,1.5,3.16,3,4.75,4.5c0.69,0.65,0.86,0.65,1.48-0.07
			c3.29-3.82,6.57-7.64,9.85-11.46c0.62-0.72,0.77-0.73,1.49-0.13c0.98,0.83,1.95,1.68,2.93,2.51c0.45,0.38,0.52,0.74,0.11,1.22
			c-4.7,5.45-9.4,10.91-14.1,16.36c-0.45,0.52-0.7,0.52-1.19,0.06c-3.11-2.93-6.22-5.87-9.32-8.81c-0.6-0.57-0.6-0.79-0.02-1.4
			c0.88-0.94,1.77-1.87,2.66-2.8C18.84,25.23,19.06,25.1,19.32,24.91z"/>
	</g>
</g>
</svg>
