<?xml version="1.0" encoding="utf-8"?>
<!-- Generator: Adobe Illustrator 25.2.0, SVG Export Plug-In . SVG Version: 6.00 Build 0)  -->
<svg version="1.1" id="Layer_1" xmlns="http://www.w3.org/2000/svg" xmlns:xlink="http://www.w3.org/1999/xlink" x="0px" y="0px"
	 viewBox="0 0 56.69 56.69" style="enable-background:new 0 0 56.69 56.69;" xml:space="preserve">
<style type="text/css">
	.st0{fill:#505C91;}
	.st1{fill:#F9F9F9;}
	.st2{fill:#CACED8;}
	.st3{fill:#505D70;}
	.st4{fill:#F14A16;}
	.st5{fill:#B3B3B3;}
	.st6{fill:#FFFFFF;}
	.st7{fill:#FEFEFE;}
	.st8{fill:#FDD32D;}
	.st9{clip-path:url(#SVGID_2_);}
	.st10{clip-path:url(#SVGID_6_);}
	.st11{clip-path:url(#SVGID_8_);}
	.st12{fill:#19D819;}
	.st13{fill:#989898;}
	.st14{fill:#4C9FFF;}
	.st15{stroke:#FFFFFF;stroke-miterlimit:10;}
	.st16{fill:#FE591F;}
	.st17{fill:#FD780F;}
	.st18{fill:#888888;}
	.st19{fill:#606060;}
	.st20{fill:#55A35B;}
	.st21{fill:#F7F8FA;}
	.st22{fill:#F4F4F4;}
	.st23{fill:#808080;}
	.st24{fill:#041562;}
	.st25{fill:#B7BBBF;}
	.st26{fill:#00C9A7;}
	.st27{fill:none;stroke:#E7EAF3;stroke-miterlimit:10;}
	.st28{fill:#D1CFCF;stroke:#0000FF;stroke-miterlimit:10;}
	.st29{fill:none;stroke:#231815;}
	.st30{fill:none;stroke:#E8EDEF;stroke-miterlimit:10;}
	.st31{fill:none;stroke:#BDCCD4;stroke-width:0.5;stroke-miterlimit:10;}
	.st32{clip-path:url(#SVGID_14_);}
	.st33{clip-path:url(#SVGID_18_);fill:none;stroke:#558ED5;stroke-width:0.75;stroke-miterlimit:8;}
	.st34{fill:#4D4D4D;}
	.st35{clip-path:url(#SVGID_20_);}
</style>
<g>
	<path d="M32.59,51.48c0-4.69,0-9.21,0-13.78c-2.86,0-5.61,0-8.46,0c0,4.56,0,9.07,0,13.71c-0.43,0.03-0.76,0.07-1.1,0.07
		c-3.75,0-7.5,0.01-11.25,0c-1.86,0-2.66-0.82-2.66-2.8C9.1,43.31,9.09,37.94,9.14,32.57c0-0.51,0.31-1.17,0.68-1.5
		c5.92-5.32,11.88-10.6,17.81-15.91c0.53-0.47,0.86-0.51,1.41-0.02c5.96,5.33,11.95,10.63,17.9,15.98c0.34,0.31,0.61,0.94,0.62,1.42
		c0.04,5.37,0.04,10.74,0.02,16.11c0,1.98-0.8,2.82-2.64,2.82C40.88,51.48,36.82,51.48,32.59,51.48z"/>
	<path d="M39.05,13.52c0-2.33,0-4.36,0-6.39c0-1.55,0.21-1.77,1.65-1.78c1.75-0.01,3.5-0.01,5.25,0c1.4,0.01,1.63,0.26,1.63,1.81
		c0.01,4.31,0.02,8.62-0.01,12.93c-0.01,0.8,0.23,1.32,0.8,1.82c2.04,1.78,4.06,3.6,6.07,5.42c1.07,0.97,1.1,1.36,0.21,2.53
		c-0.44,0.58-0.89,1.17-1.35,1.74c-0.83,1.05-1.28,1.09-2.28,0.19c-4.68-4.21-9.36-8.42-14.04-12.63c-2.64-2.37-5.29-4.73-7.89-7.13
		c-0.58-0.54-0.92-0.49-1.49,0.02c-7.22,6.53-14.46,13.04-21.7,19.55c-1.32,1.18-1.61,1.16-2.72-0.27c-0.34-0.43-0.68-0.87-1.01-1.3
		c-1.05-1.37-1.03-1.68,0.27-2.85c3.85-3.46,7.7-6.92,11.54-10.38c3.71-3.34,7.43-6.68,11.14-10.02c2.32-2.09,4.14-2.09,6.45,0
		C33.99,8.96,36.4,11.14,39.05,13.52z"/>
</g>
</svg>
